<mxfile host="app.diagrams.net" modified="2023-05-09T14:21:12.930Z" agent="5.0 (Windows NT 10.0; Win64; x64) AppleWebKit/537.36 (KHTML, like Gecko) Chrome/112.0.0.0 Safari/537.36 Edg/112.0.1722.39" etag="Ei3z8ZZGRMEK-Tqyzaax" version="21.0.8" type="github">
  <diagram name="第 1 页" id="pfOU_sHOjGAB4-6uUbEB">
    <mxGraphModel dx="1702" dy="838" grid="1" gridSize="10" guides="1" tooltips="1" connect="1" arrows="1" fold="1" page="1" pageScale="1" pageWidth="827" pageHeight="1169" math="1" shadow="0">
      <root>
        <mxCell id="0" />
        <mxCell id="1" parent="0" />
        <mxCell id="-HiTwSVM1zt2PtKnJSn7-5" value="$$\{(x_n,y_n)\}^N_{n=1}$$" style="text;html=1;strokeColor=none;fillColor=none;align=center;verticalAlign=middle;whiteSpace=wrap;rounded=0;" vertex="1" parent="1">
          <mxGeometry x="300" y="205" width="60" height="30" as="geometry" />
        </mxCell>
        <mxCell id="-HiTwSVM1zt2PtKnJSn7-6" value="" style="rounded=1;whiteSpace=wrap;html=1;fillColor=#ccccff;strokeColor=#9673a6;" vertex="1" parent="1">
          <mxGeometry x="380" y="160" width="140" height="90" as="geometry" />
        </mxCell>
        <mxCell id="-HiTwSVM1zt2PtKnJSn7-7" value="&lt;font face=&quot;Times New Roman&quot;&gt;&lt;span style=&quot;font-size: 22px;&quot;&gt;$$c_0=0$$&lt;/span&gt;&lt;/font&gt;" style="text;html=1;strokeColor=none;fillColor=none;align=center;verticalAlign=middle;whiteSpace=wrap;rounded=0;" vertex="1" parent="1">
          <mxGeometry x="440" y="210" width="60" height="40" as="geometry" />
        </mxCell>
        <mxCell id="-HiTwSVM1zt2PtKnJSn7-9" value="&lt;font face=&quot;Times New Roman&quot; style=&quot;font-size: 22px;&quot;&gt;&lt;font style=&quot;font-size: 22px;&quot;&gt;Minimise&lt;br&gt;&lt;/font&gt;SOvA loss (&lt;font color=&quot;#ff3333&quot;&gt;2&lt;/font&gt;)&lt;br&gt;with&amp;nbsp; &amp;nbsp; &amp;nbsp; &amp;nbsp; &amp;nbsp; &amp;nbsp;&amp;nbsp;&lt;br&gt;&lt;/font&gt;" style="text;html=1;strokeColor=none;fillColor=none;align=center;verticalAlign=middle;whiteSpace=wrap;rounded=0;" vertex="1" parent="1">
          <mxGeometry x="380" y="170" width="140" height="70" as="geometry" />
        </mxCell>
        <mxCell id="-HiTwSVM1zt2PtKnJSn7-10" value="" style="rounded=1;whiteSpace=wrap;html=1;fillColor=#ccccff;" vertex="1" parent="1">
          <mxGeometry x="110" y="480" width="160" height="85" as="geometry" />
        </mxCell>
        <mxCell id="-HiTwSVM1zt2PtKnJSn7-14" value="" style="group" vertex="1" connectable="0" parent="1">
          <mxGeometry x="840" y="160" width="150" height="85" as="geometry" />
        </mxCell>
        <mxCell id="-HiTwSVM1zt2PtKnJSn7-11" value="" style="rounded=1;whiteSpace=wrap;html=1;fillColor=#d5e8d4;strokeColor=#82b366;" vertex="1" parent="-HiTwSVM1zt2PtKnJSn7-14">
          <mxGeometry width="150" height="85" as="geometry" />
        </mxCell>
        <mxCell id="-HiTwSVM1zt2PtKnJSn7-12" value="&lt;font face=&quot;Times New Roman&quot; style=&quot;font-size: 22px;&quot;&gt;Classify via&lt;br&gt;(&lt;font color=&quot;#ff3333&quot;&gt;1&lt;/font&gt;) for any&amp;nbsp; &amp;nbsp; &amp;nbsp; &amp;nbsp;&lt;br&gt;&lt;/font&gt;" style="text;html=1;strokeColor=none;fillColor=none;align=center;verticalAlign=middle;whiteSpace=wrap;rounded=0;" vertex="1" parent="-HiTwSVM1zt2PtKnJSn7-14">
          <mxGeometry x="5" y="7.5" width="140" height="70" as="geometry" />
        </mxCell>
        <mxCell id="-HiTwSVM1zt2PtKnJSn7-13" value="&lt;font face=&quot;Times New Roman&quot;&gt;&lt;span style=&quot;font-size: 22px;&quot;&gt;$$c_0$$&lt;/span&gt;&lt;/font&gt;" style="text;html=1;strokeColor=none;fillColor=none;align=center;verticalAlign=middle;whiteSpace=wrap;rounded=0;" vertex="1" parent="-HiTwSVM1zt2PtKnJSn7-14">
          <mxGeometry x="90" y="40" width="60" height="30" as="geometry" />
        </mxCell>
        <mxCell id="-HiTwSVM1zt2PtKnJSn7-16" value="" style="group" vertex="1" connectable="0" parent="1">
          <mxGeometry x="130" y="180" width="120" height="60" as="geometry" />
        </mxCell>
        <mxCell id="-HiTwSVM1zt2PtKnJSn7-1" value="" style="rounded=1;whiteSpace=wrap;html=1;fillColor=#f8cecc;strokeColor=#b85450;" vertex="1" parent="-HiTwSVM1zt2PtKnJSn7-16">
          <mxGeometry width="120" height="60" as="geometry" />
        </mxCell>
        <mxCell id="-HiTwSVM1zt2PtKnJSn7-2" value="&lt;font face=&quot;Times New Roman&quot; style=&quot;font-size: 22px;&quot;&gt;Training&lt;br&gt;sample&lt;/font&gt;" style="text;html=1;strokeColor=none;fillColor=none;align=center;verticalAlign=middle;whiteSpace=wrap;rounded=0;" vertex="1" parent="-HiTwSVM1zt2PtKnJSn7-16">
          <mxGeometry x="30" y="15" width="60" height="30" as="geometry" />
        </mxCell>
      </root>
    </mxGraphModel>
  </diagram>
</mxfile>
